Coordinates
version=1
nRows=9
nColumns=24
inDegrees=yes

Units are S.I. units (second, meters, Newtons, ...)
Angles are in degrees.

endheader
time	pelvis_tilt	pelvis_list	pelvis_rotation	pelvis_tx	pelvis_ty	pelvis_tz	hip_flexion_r	hip_adduction_r	hip_rotation_r	knee_angle_r	ankle_angle_r	subtalar_angle_r	mtp_angle_r	hip_flexion_l	hip_adduction_l	hip_rotation_l	knee_angle_l	ankle_angle_l	subtalar_angle_l	mtp_angle_l	lumbar_extension	lumbar_bending	lumbar_rotation
      1.62000000	     21.33874898	     -3.97993949	      4.43409843	     -0.17966964	      0.85765420	     -0.00474807	     -4.93843882	      4.15393454	    -17.90190853	    -33.04546488	     32.95157383	      6.25435804	     30.45262049	    -20.81210294	     -3.70394214	    -10.20937677	    -17.92561435	     28.60223450	     11.52187588	     29.75590343	    -37.65213834	      6.20051020	     -9.33527820
      1.62500000	     21.48791231	     -4.27818738	      4.61857773	     -0.17409737	      0.85762867	     -0.00464186	     -5.29786342	      4.75615677	    -18.20995197	    -29.84243858	     32.67726503	      6.65266388	     30.67166563	    -21.34192699	     -4.16067986	    -10.39998137	    -18.02069650	     28.99114026	     11.87117169	     29.65358787	    -37.76460240	      6.58094733	     -9.36188401
      1.63000000	     21.64299429	     -4.55368938	      4.79380626	     -0.16841819	      0.85752405	     -0.00447857	     -5.72581166	      5.35434213	    -18.51708368	    -26.53371056	     32.28731291	      7.06163660	     31.06376660	    -21.88082956	     -4.60271939	    -10.65042950	    -18.13825545	     29.38336442	     12.28341885	     29.50478872	    -37.86781723	      6.93185613	     -9.40048087
      1.63500000	     21.72105961	     -4.81902447	      4.96656169	     -0.16271630	      0.85723481	     -0.00419780	     -6.10882032	      5.96603053	    -18.79892225	    -23.13241656	     31.51177616	      7.29804010	     33.29136034	    -22.29907188	     -5.04984094	    -10.92579607	    -18.35255534	     29.93541656	     12.78601559	     28.58840233	    -37.88644089	      7.25487068	     -9.43366485
      1.64000000	     21.84148338	     -4.97865719	      5.14060041	     -0.15691158	      0.85689957	     -0.00396238	     -6.57426957	      6.45861575	    -19.18421870	    -19.77642871	     31.01206012	      7.91249786	     33.47909929	    -22.79993859	     -5.37369312	    -11.12201354	    -18.49220032	     30.29197215	     13.05725262	     28.54362797	    -37.93573178	      7.48621521	     -9.54892138
      1.64500000	     21.91866466	     -5.12914340	      5.26249498	     -0.15107006	      0.85639853	     -0.00354801	     -7.01320725	      6.95919969	    -19.46522143	    -16.41433216	     30.24020092	      8.43927832	     34.30104608	    -23.24401715	     -5.69035416	    -11.41860520	    -18.68931701	     30.78981505	     13.52267347	     28.38013997	    -37.93784385	      7.66613055	     -9.57041144
      1.65000000	     21.94577354	     -5.18438336	      5.44746438	     -0.14521926	      0.85575179	     -0.00320131	     -7.41215991	      7.36628211	    -19.87709614	    -13.10896034	     29.27003666	      8.85650241	     36.51188023	    -23.59652810	     -5.92814824	    -11.54592671	    -18.94829479	     31.21232865	     13.82210088	     27.86071312	    -37.87821847	      7.78880016	     -9.76980600
      1.65500000	     21.94981883	     -5.17874499	      5.58071050	     -0.13933634	      0.85497415	     -0.00278566	     -7.75636191	      7.68579568	    -20.30066648	    -10.04666742	     28.50657226	      9.61670699	     36.66628628	    -23.93273541	     -6.08394050	    -11.69005368	    -19.21294173	     31.58966462	     14.08763062	     27.87352888	    -37.79546549	      7.82754892	     -9.92519230
      1.66000000	     21.88186081	     -5.16687017	      5.64338244	     -0.13343296	      0.85400666	     -0.00218949	     -7.98289831	      7.98270846	    -20.64937060	     -7.20112003	     27.55045959	     10.26284510	     38.52207192	    -24.16953011	     -6.22517278	    -11.96790888	    -19.56890700	     32.08122177	     14.47727000	     27.59769552	    -37.63793292	      7.80839606	    -10.04008800
